<svg version="1.2" xmlns="http://www.w3.org/2000/svg" viewBox="0 0 256 256" width="256" height="256">
	<title>Oiyn Shak logo</title>
	<style>
		.s0 { fill: #ffc800;stroke: #c89100;paint-order:stroke fill markers;stroke-linejoin: round;stroke-width: 4 } 
		.s1 { fill: #b47d00 } 
		.s2 { fill: #000000;stroke: #ffffff;paint-order:stroke fill markers;stroke-linejoin: round;stroke-width: 4 } 
		.s3 { fill: #ffe600;stroke: #c89100;paint-order:stroke fill markers;stroke-linejoin: round;stroke-width: 2 } 
		.s4 { fill: #000000 } 
	</style>
	<path id="Форма 2 copy" class="s0" d="m201 114c6.6 0 13-2.6 17.7-7.3 4.7-4.7 7.3-11.1 7.3-17.7 0-6.6-2.6-13-7.3-17.7-4.7-4.7-11.1-7.3-17.7-7.3-6.6 0-13 2.6-17.7 7.3-4.7 4.7-7.3 11.1-7.3 17.7 0 6.6 2.6 13 7.3 17.7 4.7 4.7 11.1 7.3 17.7 7.3z"/>
	<path id="Форма 2 copy 2" class="s0" d="m55 114c6.6 0 13-2.6 17.7-7.3 4.7-4.7 7.3-11.1 7.3-17.7 0-6.6-2.6-13-7.3-17.7-4.7-4.7-11.1-7.3-17.7-7.3-6.6 0-13 2.6-17.7 7.3-4.7 4.7-7.3 11.1-7.3 17.7 0 6.6 2.6 13 7.3 17.7 4.7 4.7 11.1 7.3 17.7 7.3z"/>
	<path id="Форма 2" class="s1" d="m55 105c4 0 7.8-1.6 10.6-4.4 2.8-2.8 4.4-6.6 4.4-10.6 0-4-1.6-7.8-4.4-10.6-2.8-2.8-6.6-4.4-10.6-4.4-4 0-7.8 1.6-10.6 4.4-2.8 2.8-4.4 6.6-4.4 10.6 0 4 1.6 7.8 4.4 10.6 2.8 2.8 6.6 4.4 10.6 4.4z"/>
	<path id="Форма 2 copy 3" class="s1" d="m201 105c4 0 7.8-1.6 10.6-4.4 2.8-2.8 4.4-6.6 4.4-10.6 0-4-1.6-7.8-4.4-10.6-2.8-2.8-6.6-4.4-10.6-4.4-4 0-7.8 1.6-10.6 4.4-2.8 2.8-4.4 6.6-4.4 10.6 0 4 1.6 7.8 4.4 10.6 2.8 2.8 6.6 4.4 10.6 4.4z"/>
	<path id="Форма 1" class="s0" d="m127.7 214.4c21.1 0 41.4-8.4 56.4-23.3 14.9-15 23.3-35.3 23.3-56.4 0-21.1-8.4-41.4-23.3-56.4-15-14.9-35.3-23.3-56.4-23.3-21.1 0-41.4 8.4-56.4 23.3-14.9 15-23.3 35.3-23.3 56.4 0 21.1 8.4 41.4 23.3 56.4 15 14.9 35.3 23.3 56.4 23.3z"/>
	<path id="Форма 3" class="s2" d="m98 139.1c1.9 0 3.7-0.7 5-2 1.3-1.4 2.1-3.2 2.1-5 0-1.9-0.8-3.7-2.1-5-1.3-1.4-3.1-2.1-5-2.1-1.8 0-3.6 0.7-4.9 2.1-1.4 1.3-2.1 3.1-2.1 5 0 1.8 0.7 3.6 2.1 5 1.3 1.3 3.1 2 4.9 2z"/>
	<path id="Форма 3 copy" class="s2" d="m157.5 139.1c2 0 3.9-0.7 5.3-2 1.4-1.4 2.2-3.2 2.2-5 0-1.9-0.8-3.7-2.2-5-1.4-1.4-3.3-2.1-5.3-2.1-2 0-3.9 0.7-5.3 2.1-1.4 1.3-2.2 3.1-2.2 5 0 1.8 0.8 3.6 2.2 5 1.4 1.3 3.3 2 5.3 2z"/>
	<path id="Форма 3 copy 2" class="s3" d="m128 209.5c9.3 0 18.2-3.7 24.7-10.2 6.6-6.5 10.3-15.3 10.3-24.6 0-9.2-3.7-18-10.3-24.5-6.5-6.5-15.4-10.2-24.7-10.2-9.3 0-18.2 3.7-24.7 10.2-6.6 6.5-10.3 15.3-10.3 24.5 0 9.3 3.7 18.1 10.3 24.6 6.5 6.5 15.4 10.2 24.7 10.2z"/>
	<path id="Форма 3 copy 3" class="s4" d="m128 169.9c2.7 0 5.2-1.1 7.1-3 1.8-1.8 2.9-4.3 2.9-7 0-2.6-1.1-5.1-2.9-7-1.9-1.9-4.4-2.9-7.1-2.9-2.7 0-5.2 1-7.1 2.9-1.8 1.9-2.9 4.4-2.9 7 0 2.7 1.1 5.2 2.9 7 1.9 1.9 4.4 3 7.1 3z"/>
	<path id="Форма 4" class="s4" d="m105.1 170.4c1.4-0.4 3 0.1 3.5 1.2l9.5 18.7 7.3-18.6c0.3-0.8 1.4-1.4 2.6-1.4 1.2 0 2.3 0.6 2.6 1.4l7.3 18.6 9.4-18.7c0.6-1.1 2.1-1.6 3.5-1.2 1.5 0.4 2.2 1.6 1.6 2.6l-12.3 24.5c-0.4 0.8-1.5 1.3-2.6 1.3-1.2 0-2.2-0.6-2.6-1.5l-6.9-17.7-7 17.7c-0.3 0.9-1.3 1.5-2.5 1.5-1.2 0-2.2-0.5-2.7-1.3l-12.3-24.5c-0.5-1 0.2-2.2 1.6-2.6z"/>
</svg>